<?xml version="1.0" encoding="utf-8"?>
<!-- Generator: Adobe Illustrator 16.0.0, SVG Export Plug-In . SVG Version: 6.00 Build 0)  -->
<!DOCTYPE svg PUBLIC "-//W3C//DTD SVG 1.1//EN" "http://www.w3.org/Graphics/SVG/1.1/DTD/svg11.dtd">
<svg version="1.1" id="Layer_1" focusable="false" xmlns="http://www.w3.org/2000/svg" xmlns:xlink="http://www.w3.org/1999/xlink"
	 x="0px" y="0px" width="612px" height="792px" viewBox="0 0 612 792" enable-background="new 0 0 612 792" xml:space="preserve">
<path fill="#03C75A" d="M602.438,396c0,163.758-132.68,296.438-296.438,296.438S9.563,559.758,9.563,396S142.242,99.563,306,99.563
	S602.438,232.242,602.438,396z M326.321,532.146l161.965-161.965c11.235-11.236,11.235-29.405,0-40.521l-20.32-20.32
	c-11.236-11.236-29.405-11.236-40.521,0L306,430.783L184.556,309.34c-11.235-11.236-29.404-11.236-40.521,0l-20.32,20.32
	c-11.236,11.236-11.236,29.405,0,40.521L285.68,532.146C296.915,543.382,315.084,543.382,326.321,532.146z"/>
</svg>
