<?xml version="1.0" encoding="utf-8"?>
<!-- Generator: Adobe Illustrator 16.0.0, SVG Export Plug-In . SVG Version: 6.00 Build 0)  -->
<!DOCTYPE svg PUBLIC "-//W3C//DTD SVG 1.1//EN" "http://www.w3.org/Graphics/SVG/1.1/DTD/svg11.dtd">
<svg version="1.1" id="Layer_1" focusable="false" xmlns="http://www.w3.org/2000/svg" xmlns:xlink="http://www.w3.org/1999/xlink"
	 x="0px" y="0px" width="612px" height="792px" viewBox="0 0 612 792" enable-background="new 0 0 612 792" xml:space="preserve">
<path d="M546.428,352.286h-32.785v-98.357c0-114.477-93.166-207.643-207.643-207.643S98.357,139.452,98.357,253.929v98.357H65.572
	C29.37,352.286,0,381.656,0,417.857v262.285c0,36.201,29.37,65.571,65.571,65.571h480.856c36.201,0,65.572-29.37,65.572-65.571
	V417.857C612,381.656,582.629,352.286,546.428,352.286z M404.357,352.286H207.643v-98.357c0-54.233,44.124-98.357,98.357-98.357
	c54.232,0,98.356,44.124,98.356,98.357V352.286z"/>
<g id="Layer_2">
	
		<polyline fill="none" stroke="#FFFFFF" stroke-width="40" stroke-linecap="round" stroke-linejoin="round" stroke-miterlimit="10" points="
		204.5,518.5 290.5,604.5 426.5,468.5 	"/>
</g>
</svg>
