<?xml version="1.0" encoding="utf-8"?>
<!-- Generator: Adobe Illustrator 16.0.0, SVG Export Plug-In . SVG Version: 6.00 Build 0)  -->
<!DOCTYPE svg PUBLIC "-//W3C//DTD SVG 1.1//EN" "http://www.w3.org/Graphics/SVG/1.1/DTD/svg11.dtd">
<svg version="1.1" xmlns="http://www.w3.org/2000/svg" xmlns:xlink="http://www.w3.org/1999/xlink" x="0px" y="0px"
	 width="521.079px" height="100px" viewBox="0 0 521.079 100" enable-background="new 0 0 521.079 100" xml:space="preserve">
<g id="BG">
	<rect x="-160.069" y="-247.197" fill="#F1F1F2" width="841.89" height="594.395"/>
</g>
<g id="NAVER_Logo">
	<g>
		<path fill="#03CF5D" d="M150,0l-39.216,100h33.333l4.736-13.235h37.586L191.177,100h33.333L185.294,0H150z M156.469,62.745
			l11.178-31.238l11.179,31.238H156.469z"/>
		<polygon fill="#03CF5D" points="363.236,62.01 408.824,62.01 408.824,37.99 363.236,37.99 363.236,24.51 409.314,24.51 409.314,0 
			331.373,0 331.373,100 410.294,100 410.294,75.49 363.236,75.49 		"/>
		<polygon fill="#03CF5D" points="264.215,65.753 240.687,0 207.353,0 246.569,100 281.863,100 321.079,0 287.746,0 		"/>
		<polygon fill="#03CF5D" points="68.137,53.521 30.882,0 0,0 0,100 32.353,100 32.353,46.479 69.608,100 100.49,100 100.49,0 
			68.137,0 		"/>
		<path fill="#03CF5D" d="M495.796,65.694l3.033-1.27c11.621-4.864,17.532-15.39,17.532-28.748c0-12.632-4.607-21.977-13.694-27.775
			C494.221,2.511,483.266,0,468.194,0H425.98v100h31.373V72.059h11.274L487.746,100h33.333L495.796,65.694z M474.02,46.569h-17.157
			V25.49h17.157c5.82,0,10.539,4.719,10.539,10.539C484.559,41.85,479.84,46.569,474.02,46.569z"/>
	</g>
</g>
</svg>
