<?xml version="1.0" encoding="utf-8"?>
<!-- Generator: Adobe Illustrator 16.0.0, SVG Export Plug-In . SVG Version: 6.00 Build 0)  -->
<!DOCTYPE svg PUBLIC "-//W3C//DTD SVG 1.1//EN" "http://www.w3.org/Graphics/SVG/1.1/DTD/svg11.dtd">
<svg version="1.1" id="Layer_2" xmlns="http://www.w3.org/2000/svg" xmlns:xlink="http://www.w3.org/1999/xlink" x="0px" y="0px"
	 width="521.078px" height="100px" viewBox="0 0 521.078 100" enable-background="new 0 0 521.078 100" xml:space="preserve">
<g>
	<path fill="#595959" d="M149,0l-39.216,100h33.333l4.735-13.234h37.586L190.177,100h33.333L184.294,0H149z M155.469,62.745
		l11.178-31.238l11.18,31.238H155.469z"/>
	<polygon fill="#595959" points="362.236,62.01 407.823,62.01 407.823,37.99 362.236,37.99 362.236,24.51 408.314,24.51 408.314,0 
		330.372,0 330.372,100 409.294,100 409.294,75.49 362.236,75.49 	"/>
	<polygon fill="#595959" points="263.215,65.753 239.687,0 206.353,0 245.569,100 280.863,100 320.078,0 286.746,0 	"/>
	<polygon fill="#595959" points="67.137,53.521 29.882,0 -1,0 -1,100 31.353,100 31.353,46.479 68.608,100 99.49,100 99.49,0 
		67.137,0 	"/>
	<path fill="#595959" d="M494.796,65.693l3.032-1.27c11.621-4.863,17.532-15.39,17.532-28.748c0-12.632-4.606-21.977-13.694-27.775
		C493.221,2.511,482.266,0,467.194,0H424.98v100h31.373V72.059h11.274L486.745,100h33.333L494.796,65.693z M473.02,46.569h-17.157
		V25.49h17.157c5.82,0,10.539,4.719,10.539,10.539C483.559,41.85,478.84,46.569,473.02,46.569z"/>
</g>
</svg>
